{"title":"Crisis in Six Scenes S01 720p WEBRip HEVC 2CH x265","uid":15958716,"size":1086364199,"categoryP":"video","categoryS":"hd___tv_shows","magnet":"?xt=urn:btih:d20c241dc3856218dea7fbc6de9cc4f8e359dc04&amp;dn=Crisis+in+Six+Scenes+S01+720p+WEBRip+HEVC+2CH+x265&amp;tr=udp%3A%2F%2Ftracker.leechers-paradise.org%3A6969&amp;tr=udp%3A%2F%2Fzer0day.ch%3A1337&amp;tr=udp%3A%2F%2Fopen.demonii.com%3A1337&amp;tr=udp%3A%2F%2Ftracker.coppersurfer.tk%3A6969&amp;tr=udp%3A%2F%2Fexodus.desync.com%3A6969","seeders":14,"leechers":10,"uploader":"nayhtut","files":6,"time":1475638340,"description":"Source: Crisis in Six Scenes S01 720p WEBRip DD2.0 H.264-BTN\r\n\r\n\r\nContains:  Crisis in Six Scenes Season One Episode 01 to 06\r\n\r\nFormat                                   : Matroska\r\nFormat version                           : Version 4 / Version 2\r\nFile size                                : 1.02 GiB\r\nDuration                                 : Various\r\nOverall bit rate                         : 989 Kbps\r\nWriting application                      : Lavf57.25.100\r\nWriting library                          : Lavf57.25.100\r\n\r\nVideo\r\n\r\nID                                       : 1\r\nFormat                                   : V_MPEGH/ISO/HEVC\r\nCodec ID                                 : V_MPEGH/ISO/HEVC\r\nDuration                                 : 23mn 12s\r\nBit rate                                 : 777 Kbps\r\nWidth                                    : 1 280 pixels\r\nHeight                                   : 720 pixels\r\nDisplay aspect ratio                     : 16:9\r\nFrame rate                               : 25.000 fps\r\nBits/(Pixel*Frame)                       : 0.034\r\nStream size                              : 129 MiB (79%)\r\nWriting library                          : Lavc57.48.101 libx265\r\nDefault                                  : Yes\r\nForced                                   : No\r\nDURATION                                 : 00:23:12.411000000\r\n\r\nAudio\r\n\r\nID                                       : 2\r\nFormat                                   : AC-3\r\nFormat/Info                              : Audio Coding 3\r\nMode extension                           : CM (complete main)\r\nFormat settings, Endianness              : Big\r\nCodec ID                                 : A_AC3\r\nDuration                                 : 23mn 12s\r\nBit rate mode                            : Constant\r\nBit rate                                 : 192 Kbps\r\nChannel(s)                               : 2 channels\r\nChannel positions                        : Front: L R\r\nSampling rate                            : 48.0 KHz\r\nBit depth                                : 16 bits\r\nCompression mode                         : Lossy\r\nStream size                              : 31.9 MiB (19%)\r\nWriting library                          : Lavc57.24.102 ac3\r\nLanguage                                 : English\r\nDefault                                  : Yes\r\nForced                                   : No\r\nDURATION                                 : 00:23:12.319000000","torrent":{"xt":"urn:btih:d20c241dc3856218dea7fbc6de9cc4f8e359dc04","amp;dn":"Crisis+in+Six+Scenes+S01+720p+WEBRip+HEVC+2CH+x265","amp;tr":["udp%3A%2F%2Ftracker.leechers-paradise.org%3A6969","udp%3A%2F%2Fzer0day.ch%3A1337","udp%3A%2F%2Fopen.demonii.com%3A1337","udp%3A%2F%2Ftracker.coppersurfer.tk%3A6969","udp%3A%2F%2Fexodus.desync.com%3A6969"],"infoHash":"d20c241dc3856218dea7fbc6de9cc4f8e359dc04","infoHashBuffer":{"type":"Buffer","data":[210,12,36,29,195,133,98,24,222,167,251,198,222,156,196,248,227,89,220,4]},"announce":[],"urlList":[]}}